<svg width="100" height="100" viewBox="0 0 100 100" fill="none"
    xmlns="http://www.w3.org/2000/svg">
    <rect width="100" height="100" fill="#00FA9A"/>
    <path d="M56.6588 69.813L55.984 76.6741" stroke="black" stroke-width="4.26848" stroke-linecap="round" stroke-linejoin="round"/>
    <path d="M45.054 67.6881L42.6669 76.5968" stroke="black" stroke-width="4.26848" stroke-linecap="round" stroke-linejoin="round"/>
    <path d="M33.9416 63.7259L31.0953 70.0051" stroke="black" stroke-width="4.26848" stroke-linecap="round" stroke-linejoin="round"/>
    <path d="M67.8857 37.0448C77.6881 41.9987 83.6196 48.4816 82.2022 53.7711C80.2254 61.1487 64.6739 63.3969 47.4411 58.7794C30.2083 54.1619 17.8644 44.4391 19.8412 37.0616C21.2585 31.772 29.6999 29.1105 40.7142 29.7642" stroke="black" stroke-width="4.26848" stroke-linecap="round" stroke-linejoin="round"/>
    <path d="M36.3341 37.8703C36.0602 38.8746 36.1387 39.9424 36.5564 40.8959C36.9742 41.8494 37.706 42.6309 38.63 43.1104C42.375 45.0682 46.3326 46.5892 50.4249 47.6434C54.4961 48.7766 58.684 49.4382 62.9062 49.6152C63.9461 49.662 64.9707 49.351 65.8092 48.7341C66.6477 48.1173 67.2496 47.2318 67.5146 46.2251L67.8055 45.1393C68.3587 43.0755 68.4966 40.9224 68.2112 38.8049C67.9258 36.6874 67.2228 34.6476 66.143 32.8039C65.0632 30.9602 63.6281 29.3492 61.9209 28.0644C60.2137 26.7796 58.2684 25.8466 56.1978 25.3194C47.5933 23.1332 38.8554 28.4604 36.5653 37.0072L36.3341 37.8703Z" stroke="black" stroke-width="4.26848" stroke-linecap="round" stroke-linejoin="round"/>
</svg>
